{"AssetRegistry":[{"AudioCoverPath":"cache/136.png","AudioCoverResolution":[200.0,200.0],"FFProbeData":"Input #0, mp3, from '/run/media/corgifist/Stuff/ProgrammingProjects/Electron/stereo-test.mp3':\n  Metadata:\n    album           : Test Sounds\n    title           : Stereo Test\n    artist          : Test\n    album_artist    : alsa-utils\n  Duration: 00:00:16.81, start: 0.034531, bitrate: 98 kb/s\n  Stream #0:0: Audio: mp3, 32000 Hz, stereo, fltp, 96 kb/s\n    Metadata:\n      encoder         : LAME3.99r\n    Side data:\n      replaygain: track gain - 1.200000, track peak - unknown, album gain - unknown, album peak - unknown, \n  Stream #0:1: Video: png, pal8(pc), 200x200 [SAR 11811:11811 DAR 1:1], 90k tbr, 90k tbn (attached pic)\n    Metadata:\n      comment         : Cover (front)\n\n","ID":1028548603,"InternalName":"New Asset","Path":"cache/138.wav","Type":"Audio"}],"AssetSearch":"","AssetSelected":0,"BackgroundColor":[1.0,1.0,1.0],"Framerate":60,"LastAssetPreviewScale":1.0,"LastColorBuffer":3,"LastSelectedLayer":1139896717,"LegendWidth":0.16329284012317657,"LoopPlayback":true,"Playing":false,"PreviewResolution":0,"ProjectName":"Development test","ProjectResolution":[1280,720],"RenderPreviewScale":0.699999988079071,"TimelineValue":31.0,"TimelineZoom":1.5700010061264038}